<svg xmlns="http://www.w3.org/2000/svg" width="805.363" height="552.941" viewBox="0 0 805.363 552.941"><defs><style>.a{fill:#c1dee2;}.b{fill:#efb157;}.c{fill:#dde3e9;}.d{fill:#3a5699;fill-rule:evenodd;}.e{fill:#f0b7b7;}.f{fill:#ed9e4a;}.g{fill:#7680af;}.h{fill:#f4f5f5;}.i{fill:#3c364a;}</style></defs><g transform="translate(0)"><rect class="a" width="102.648" height="311.816" transform="translate(154.94 241.125)"/><rect class="b" width="102.648" height="158.813" transform="translate(0 394.128)"/><rect class="b" width="102.648" height="392.191" transform="translate(309.88 160.75)"/><rect class="c" width="102.648" height="490.965" transform="translate(464.819 61.976)"/><rect class="a" width="102.648" height="552.941" transform="translate(619.759 0)"/><path class="d" d="M828.222,307.437l96.215-43.777L903.125,366.742l-23.939-22.932L762.766,508.28a11.988,11.988,0,0,1-6.812,4.632,11.576,11.576,0,0,1-8.126-1.157l-42.618-24.091L571.657,662.325a14.737,14.737,0,0,1-4.833,3.7,10.141,10.141,0,0,1-5.711.7l-103.9-14.6L373.3,774.207a12.615,12.615,0,0,1-6.373,4.637,10.118,10.118,0,0,1-7.687-.694L283.46,743.633,217.782,816.6l-16.915-16.91L272.258,720.7a9.505,9.505,0,0,1,5.93-3.473,10.167,10.167,0,0,1,7.029.694L359.683,752.2,442.932,631.98a13.621,13.621,0,0,1,4.837-3.942,9.221,9.221,0,0,1,5.928-.925l104.119,14.6L693.347,464.5a9.665,9.665,0,0,1,6.59-4.171,10.211,10.211,0,0,1,7.687,1.159l42.616,23.86L861.388,329.909Z" transform="translate(-200.867 -263.66)"/></g><g transform="translate(678.427 134.78)"><g transform="translate(0 0)"><path class="e" d="M1138.436,583.985a316.106,316.106,0,0,1,2.938,36.242c.564,3.588,4.825,14.248-4.712,17.609s-17.047-2.58-20.3-2.692-17.5,2.692-22.324-10.77c-.894-4.6,6.063-8.185,18.4-5.719,3.591.227,12.007-3.141,11.665-6.508s-4.678-27.785-4.678-27.785Z" transform="translate(-1047.4 -237.193)"/><path class="f" d="M1094.038,618.216c4.826,13.462,19.071,10.658,22.324,10.77s10.768,6.057,20.3,2.691c7.419-2.613,6.49-9.632,5.443-14.317.165,9.79-30.678,6.912-29.67,2.2s0-7.067,0-7.067c-12.334-2.469-19.291,1.121-18.4,5.719" transform="translate(-1047.4 -231.035)"/><path class="g" d="M1084.223,431.165s-12.13,52.194-12.58,88.982,2.1,89.74,3.589,96.917,25.425,24.978,55.035,16.007c14.364-6.285,29.02-21.988,47.565-21.391,8.973-4.037-25.851-100.428-27.2-112.542s.229-46.152-10.359-69.2c-54.836-1.963-56.055,1.23-56.055,1.23" transform="translate(-1052.372 -271.572)"/><path class="e" d="M1087.85,416.506s-3.441,23.18-5.458,29.462-15.254,36.792-15.254,36.792,3.367,6.281,2.245,10.1-1.425,11.891.369,16.823-11.064,1.946-11.811-4.483-3.89-15.106-.6-22.883c.455-21.837,8.527-39.335,9.274-46.513s.325-23.3.325-23.3,14.78-4.965,20.911,4.009" transform="translate(-1055.867 -275.61)"/><path class="e" d="M1150.4,385.706s10.746,22.294,3.117,29.028-33.1-1.445-33.1-1.445l8.641-32.2Z" transform="translate(-1041.52 -282.286)"/><path class="h" d="M1096.856,369.359s-24.978,11.817-26.772,19-10.319,32.155-10.319,32.155a10.389,10.389,0,0,0,6.883,4.633c4.632.748,10.615,1.05,12.713,2.844s7.624,1.046,7.624,1.046,1.647,9.122.3,14.957,0,11.215,9.57,14.954,31.408.749,38.433-3.886,8.228-5.984,7.782-14.81-.75-22.131,1.344-29.758,8.6-13.134,8.6-13.134a14.055,14.055,0,0,0,6.353-2.569c3.731-5.384,6.576-1.65,9.868-5.538-6.842-18.581-13.013-36.75-27.069-34.269-19.589,3.761-45.317,14.377-45.317,14.377" transform="translate(-1055 -288.139)"/><path class="e" d="M1090.287,317.084a78.5,78.5,0,0,0-3.093,15.929c-1.419,4.264-9.573,24.079,10.916,27.669,2.844,1.047,4.634,11.069,0,13.61s-6.73,3.438-6.73,3.438,11.363,6.433,23.328,1.65l3.3-46.218Z" transform="translate(-1049.524 -296.51)"/><path class="i" d="M1095.742,344.086s1.937-6.133,0-8.528-12.417-17.35-2.55-30.209c6.885-8.077,17.351-4.786,19.744-2.094s11.818,6.282,15.408,8.375,12.26,9.124,13.3,23.479-3.733,27.672-.143,40.981c5.535,23.406,13.386,45.841-16.23,55.931-28.623,9.763-30.878-20.185-24.9-37.385s1.947-42.924,1.947-42.924,6.576-2.392,5.533-7.33-6.433-2.687-9.728.153Z" transform="translate(-1048.499 -300.251)"/><path class="e" d="M1122.9,597.2a316.989,316.989,0,0,1,2.936,36.235c.562,3.593,4.825,14.248-4.708,17.613s-17.053-2.581-20.3-2.693-17.5,2.693-22.322-10.764c-.895-4.6,6.057-8.192,18.392-5.725,3.587.226,12-3.139,11.668-6.5s-4.684-27.788-4.684-27.788Z" transform="translate(-1050.853 -234.255)"/><path class="f" d="M1078.5,631.436c4.823,13.457,19.065,10.653,22.322,10.764s10.771,6.056,20.3,2.693c7.413-2.616,6.485-9.633,5.443-14.319.159,9.8-30.684,6.917-29.674,2.2s0-7.068,0-7.068c-12.335-2.466-19.287,1.121-18.392,5.725" transform="translate(-1050.853 -228.098)"/></g></g></svg>